<?xml version="1.0" encoding="UTF-8"?>
<svg width="240" height="240" viewBox="0 0 240 240" xmlns="http://www.w3.org/2000/svg">
  <defs>
    <linearGradient id="panelBlue" x1="0" y1="0" x2="1" y2="1">
      <stop offset="0%" stop-color="#0f1f4d"/>
      <stop offset="100%" stop-color="#1f3aa5"/>
    </linearGradient>
    <clipPath id="clipO1"><circle cx="0" cy="0" r="28"/></clipPath>
    <clipPath id="clipO2"><circle cx="0" cy="0" r="30"/></clipPath>
  </defs>

  <!-- Blue panel flush to edges -->
  <rect x="0" y="0" width="240" height="240" rx="12"
        fill="url(#panelBlue)" stroke="#0a1638" stroke-width="2"/>

  <!-- TL Ornament -->
  <g transform="translate(60.0,60.0)">
    <rect x="-6" y="-38" width="12" height="9" rx="2" fill="#f1b434"/>
    <rect x="-3" y="-43" width="6" height="7" rx="3" fill="#f1b434"/>
    <circle cx="0" cy="0" r="28" fill="#d61f3a"/>
    <g clip-path="url(#clipO1)">
      <circle cx="-8" cy="-9" r="10" fill="#ffa3b0" opacity="0.45"/>
      <ellipse cx="14" cy="17" rx="17" ry="12" fill="#991b1b" opacity="0.35"/>
    </g>
  </g>

  <!-- TR Tree -->
  <g transform="translate(180.0,60.0)">
    <path d="M 0 -36 C -30 -18 -28 -11 -2 -5 C -32 -3 -29 6 -2 11 C -35 16 -30 28 0 33
             C 30 28 35 16 2 11 C 29 6 32 -3 2 -5 C 28 -11 30 -18 0 -36 Z" fill="#166534"/>
    <path d="M -18 -10 C -6 -3 12 -2 20 -4" fill="none" stroke="#0ea5e9" stroke-width="2.5" stroke-linecap="round"/>
    <path d="M -22 5 C -11 11 9 12 22 7" fill="none" stroke="#f59e0b" stroke-width="2.5" stroke-linecap="round"/>
    <path d="M -16 20 C -7 27 8 28 16 24" fill="none" stroke="#d61f3a" stroke-width="2.5" stroke-linecap="round"/>
    <circle cx="-12" cy="-7" r="2.5" fill="#f43f5e"/>
    <circle cx="2" cy="-2" r="2.5" fill="#22d3ee"/>
    <circle cx="12" cy="-6" r="2.5" fill="#facc15"/>
    <circle cx="-9" cy="9" r="2.5" fill="#84cc16"/>
    <circle cx="8" cy="12" r="2.5" fill="#f43f5e"/>
    <circle cx="0" cy="24" r="2.5" fill="#fde047"/>
    <rect x="-4" y="33" width="8" height="10" fill="#8b5a2b"/>
    <polygon points="0,-44 4,-34 13,-34 5,-29 8,-20 0,-26 -8,-20 -5,-29 -13,-34 -4,-34"
             fill="#facc15"/>
  </g>

  <!-- BL Gift -->
  <g transform="translate(60.0,174.0)">
    <rect x="-38" y="-20" width="76" height="40" rx="6" fill="#b91c1c"/>
    <rect x="-6"  y="-20" width="12" height="40" fill="#f5c74e"/>
    <rect x="-38" y="-35" width="76" height="14" rx="4" fill="#b91c1c"/>
    <path d="M -6 -35 C -32 -48 -32 -22 -6 -26 Z" fill="#f5c74e"/>
    <path d="M  6 -35 C  32 -48  32 -22  6 -26 Z" fill="#f5c74e"/>
    <circle cx="0" cy="-31" r="4" fill="#f5c74e"/>
  </g>

  <!-- BR Ornament -->
  <g transform="translate(180.0,180.0)">
    <rect x="-6" y="-40" width="12" height="9" rx="2" fill="#f1b434"/>
    <rect x="-3" y="-45" width="6" height="7" rx="3" fill="#f1b434"/>
    <circle cx="0" cy="0" r="30" fill="#d61f3a"/>
    <g clip-path="url(#clipO2)">
      <circle cx="-9" cy="-10" r="11" fill="#ffa3b0" opacity="0.45"/>
      <ellipse cx="16" cy="18" rx="18" ry="12" fill="#991b1b" opacity="0.35"/>
    </g>
  </g>
</svg>
